<svg width="768" height="726" viewBox="0 0 768 726" version="1.1" xmlns="http://www.w3.org/2000/svg" xmlns:xlink="http://www.w3.org/1999/xlink">
<title>Frame</title>
<desc>Created using Figma</desc>
<g id="Canvas" transform="translate(-1320 680)">
<clipPath id="clip-0" clip-rule="evenodd">
<path d="M 1320 -680L 2088 -680L 2088 46L 1320 46L 1320 -680Z" fill="#FFFFFF"/>
</clipPath>
<g id="Frame" clip-path="url(#clip-0)">
<g id="Group">
<g id="slinky">
<g id="Group">
<g id="Vector">
<use xlink:href="#path0_fill" transform="translate(1351 -670)" fill="#DC322F"/>
</g>
</g>
</g>
<g id="slinky">
<use xlink:href="#path1_fill" transform="translate(1317 -233)" fill="#FFFFFF"/>
</g>
<g id="logo">
<g id="Vector">
<use xlink:href="#path2_fill" transform="translate(1684.75 -333.944)" fill="#00D8FF"/>
</g>
<g id="Vector">
<use xlink:href="#path3_stroke" transform="translate(1603 -353.335)" fill="#00D8FF"/>
</g>
<g id="Vector">
<use xlink:href="#path4_stroke" transform="translate(1643.57 -404)" fill="#00D8FF"/>
</g>
<g id="Vector">
<use xlink:href="#path5_stroke" transform="translate(1643.62 -403.796)" fill="#00D8FF"/>
</g>
</g>
</g>
</g>
</g>
<defs>
<path id="path0_fill" d="M 694.543 463.983C 680.337 463.983 522.45 463.983 513.402 463.983C 504.496 463.983 496.102 460.659 496.102 450.255C 496.102 449.014 496.228 447.912 496.456 446.949C 496.228 445.968 496.102 444.875 496.102 443.625C 496.102 442.402 496.228 441.308 496.44 440.345C 496.228 439.382 496.102 438.289 496.102 437.048C 496.102 435.816 496.228 434.722 496.44 433.759C 496.228 432.796 496.102 431.711 496.102 430.479C 496.102 429.229 496.228 428.145 496.44 427.182C 496.228 426.218 496.102 425.134 496.102 423.893C 496.102 422.652 496.228 421.567 496.44 420.604C 496.228 419.641 496.102 418.556 496.102 417.315C 496.102 416.083 496.228 414.99 496.44 414.044C 496.228 413.081 496.102 411.996 496.102 410.773C 496.102 409.532 496.228 408.447 496.44 407.484C 496.228 406.529 496.102 405.436 496.102 404.212C 496.102 402.972 496.228 401.896 496.44 400.932C 496.228 399.978 496.102 398.893 496.102 397.67C 496.102 396.446 496.228 395.361 496.44 394.416C 496.228 393.461 496.102 392.368 496.102 391.162C 496.102 387.196 497.315 384.706 499.315 383.126C 497.055 381.304 495.905 378.805 495.669 375.282C 495.07 366.761 500.48 363.255 514.371 359.445C 500.102 360.513 493.968 359.064 492.165 350.725C 490.361 342.464 495.149 338.064 508.142 331.964C 494.377 335.435 488.18 335.001 485.227 327.148C 482.242 319.226 486.424 314.037 498.637 305.628C 485.298 311.581 479.03 312.31 474.951 304.995C 470.832 297.61 474.36 291.727 485.479 281.106C 472.887 289.514 466.722 291.397 461.619 284.811C 456.469 278.147 459.201 271.682 468.895 259.065C 457.453 269.738 451.571 272.775 445.531 267.083C 439.57 261.477 441.255 254.7 448.823 240.92C 439.239 253.077 433.9 256.948 427.23 252.409C 420.608 247.932 421.23 241.042 426.608 226.429C 419.017 239.792 414.332 244.4 407.142 241.111C 400.008 237.849 399.614 230.985 402.772 215.782C 397.236 230.143 393.283 235.428 385.723 233.458C 378.148 231.453 376.825 224.659 377.833 208.814C 374.368 224.234 371.21 230.204 363.414 229.596C 355.366 228.902 353.217 221.978 351.996 204.857C 350.776 221.978 348.634 228.902 340.578 229.596C 333.01 230.247 329.64 224.251 326.159 208.797C 327.167 224.676 325.844 231.471 318.261 233.466C 310.757 235.419 306.78 230.186 301.268 215.921C 304.402 231.037 303.992 237.857 296.882 241.111C 289.676 244.417 284.991 239.784 277.384 226.403C 282.762 241.059 283.4 247.94 276.778 252.418C 270.061 256.956 264.737 253.06 255.099 240.808C 262.721 254.691 264.43 261.486 258.438 267.109C 252.445 272.784 246.586 269.808 235.223 259.212C 244.83 271.734 247.523 278.19 242.389 284.794C 237.271 291.388 231.097 289.497 218.474 281.08C 229.632 291.709 233.16 297.601 229.049 305.003C 224.97 312.301 218.718 311.607 205.402 305.654C 217.584 314.054 221.765 319.234 218.781 327.148C 215.836 334.975 209.67 335.435 195.984 332.007C 208.883 338.082 213.631 342.472 211.835 350.707C 210.016 359.098 203.803 360.522 189.275 359.402C 203.433 363.246 208.938 366.743 208.331 375.351C 208.079 378.874 206.937 381.373 204.67 383.178C 206.67 384.775 207.89 387.265 207.89 391.24C 207.89 392.489 207.772 393.583 207.552 394.546C 207.772 395.509 207.89 396.602 207.89 397.852C 207.89 399.101 207.78 400.186 207.552 401.149C 207.78 402.112 207.89 403.197 207.89 404.438C 207.89 405.662 207.78 406.764 207.56 407.727C 207.78 408.681 207.89 409.775 207.89 411.016C 207.89 412.248 207.78 413.341 207.552 414.304C 207.78 415.268 207.89 416.352 207.89 417.593C 207.89 418.834 207.78 419.919 207.56 420.882C 207.78 421.845 207.89 422.93 207.89 424.17C 207.89 425.394 207.78 426.487 207.56 427.442C 207.78 428.405 207.89 429.49 207.89 430.713C 207.89 431.954 207.78 433.039 207.56 434.002C 207.78 434.965 207.89 436.05 207.89 437.291C 207.89 438.514 207.78 439.599 207.56 440.545C 207.78 441.508 207.89 442.593 207.89 443.825C 207.89 445.048 207.78 446.124 207.56 447.079C 207.78 448.034 207.89 449.11 207.89 450.333C 207.89 460.746 199.496 464 190.59 464C 184.196 464 15.2847 464 9.44956 464C 4.23655 464 1.50197e-06 459.332 1.50197e-06 453.587C 1.50197e-06 452.364 0.11812 451.288 0.330735 450.333C 0.11812 449.361 1.50197e-06 448.285 1.50197e-06 447.062C 1.50197e-06 445.838 0.118119 444.762 0.338609 443.808C 0.118119 442.844 1.50197e-06 441.768 1.50197e-06 440.545C 1.50197e-06 439.304 0.118119 438.219 0.338609 437.256C 0.118119 436.31 1.50197e-06 435.217 1.50197e-06 433.985C 1.50197e-06 432.744 0.118119 431.659 0.338609 430.713C 0.118119 429.75 1.50197e-06 428.657 1.50197e-06 427.433C 1.50197e-06 426.201 0.118119 425.116 0.338609 424.153C 0.118119 423.19 1.50197e-06 422.097 1.50197e-06 420.873C 1.50197e-06 419.632 0.118119 418.548 0.338609 417.584C 0.118119 416.612 1.50197e-06 415.528 1.50197e-06 414.296C 1.50197e-06 413.063 0.118119 411.97 0.338609 411.007C 0.118119 410.044 1.50197e-06 408.959 1.50197e-06 407.718C 1.50197e-06 406.486 0.118119 405.393 0.338609 404.429C 0.118119 403.466 1.50197e-06 402.381 1.50197e-06 401.149C 1.50197e-06 399.9 0.118118 398.806 0.346483 397.843C 0.118118 396.88 1.50197e-06 395.787 1.50197e-06 394.537C 1.50197e-06 393.288 0.118118 392.194 0.346483 391.222C 0.118118 390.259 1.50197e-06 389.157 1.50197e-06 387.925C 1.50197e-06 375.629 11.3552 374.961 38.7826 373.364C 56.7761 372.314 81.0378 371.507 104.504 370.735C 115.765 370.362 128.357 369.954 140.499 369.468C 128.215 366.847 115.426 364.209 104.008 361.849C 81.1638 357.137 57.5399 352.261 40.1449 348.191C 13.5601 342.013 2.55926 339.444 4.27592 327.365C 6.00834 315.225 17.3084 316.501 44.5783 319.633C 62.4616 321.673 86.5028 325.057 109.757 328.311C 121.072 329.89 133.727 331.669 145.933 333.309C 134.16 328.589 121.868 323.755 110.914 319.443C 88.9912 310.817 66.3123 301.897 49.6653 294.877C 24.2381 284.151 13.7255 279.7 17.1588 268.046C 20.6079 256.349 31.5536 259.603 57.9967 267.404C 75.3366 272.524 98.551 280.021 121.017 287.258C 132.026 290.807 144.35 294.781 156.225 298.539C 145.295 291.848 133.884 284.967 123.695 278.815C 103.252 266.475 82.1245 253.711 66.6666 243.879C 43.0664 228.85 33.3097 222.628 38.3652 211.703C 43.4443 200.779 53.7759 205.855 78.7542 218.142C 95.1256 226.195 116.978 237.606 138.113 248.652C 148.453 254.049 160.028 260.098 171.202 265.851C 161.414 257.408 151.193 248.695 142.066 240.92C 123.624 225.188 104.544 208.927 90.6685 196.518C 69.4936 177.592 60.7134 169.765 67.2572 159.838C 73.8247 149.92 83.3057 156.706 106.197 173.115C 121.214 183.875 141.153 198.896 160.446 213.413C 169.919 220.537 180.526 228.52 190.763 236.139C 182.337 226.177 173.518 215.86 165.643 206.662C 149.634 187.927 133.066 168.568 121.096 153.903C 102.819 131.533 95.2594 122.274 103.142 113.588C 111.017 104.928 119.411 113.249 139.696 133.381C 152.988 146.571 170.557 164.811 187.534 182.452C 195.889 191.129 205.244 200.848 214.292 210.142C 207.378 198.87 200.134 187.198 193.677 176.777C 180.502 155.526 166.871 133.554 157.107 117.015C 142.208 91.7813 136.05 81.3423 145.051 74.114C 154.051 66.9031 161.17 76.5697 178.353 99.9207C 189.621 115.219 204.378 136.244 218.663 156.576C 225.718 166.633 233.632 177.896 241.295 188.674C 236.058 176.352 230.569 163.57 225.663 152.159C 215.655 128.877 205.3 104.797 197.984 86.757C 186.834 59.2322 182.227 47.83 192.157 42.2591C 202.079 36.6708 207.717 47.4569 221.348 73.4545C 230.278 90.4883 241.861 113.779 253.051 136.305C 258.634 147.516 264.879 160.099 270.943 172.134C 267.533 159.049 263.926 145.46 260.705 133.329C 254.138 108.581 247.334 82.991 242.688 63.892C 235.601 34.7618 232.672 22.6915 243.279 18.8995C 253.847 15.0987 257.886 26.7092 267.619 54.7199C 273.99 73.0554 282.077 98.0464 289.905 122.196C 293.818 134.275 298.204 147.803 302.48 160.776C 300.992 147.334 299.386 133.381 297.937 120.92C 294.976 95.3043 291.921 68.8208 290.062 49.1143C 287.219 19.0643 286.038 6.62956 297.063 4.72052C 308.063 2.75942 310.355 14.9512 315.977 44.2376C 319.647 63.4147 324.073 89.447 328.364 114.629C 330.506 127.203 332.908 141.303 335.286 154.832C 335.703 141.451 336.089 127.567 336.428 115.15C 337.137 89.2995 337.853 62.5643 338.814 42.7364C 340.263 12.5129 340.861 4.23703e-06 352.02 4.23703e-06C 363.178 4.23703e-06 363.784 12.5129 365.241 42.7364C 366.186 62.5643 366.918 89.3082 367.619 115.15C 367.95 127.567 368.336 141.451 368.769 154.832C 371.139 141.295 373.533 127.203 375.675 114.629C 379.967 89.447 384.392 63.4147 388.07 44.2376C 393.684 14.9512 395.929 2.75942 406.985 4.72052C 418.001 6.62956 416.828 19.073 413.993 49.123C 412.127 68.8294 409.064 95.3217 406.103 120.937C 404.662 133.407 403.047 147.352 401.559 160.802C 405.851 147.82 410.237 134.283 414.143 122.213C 421.978 98.0551 430.073 73.0727 436.444 54.7373C 446.177 26.7265 450.193 15.1334 460.808 18.9081C 471.407 22.7089 468.47 34.7792 461.383 63.9267C 456.729 83.0431 449.933 108.642 443.35 133.407C 440.137 145.503 436.538 159.031 433.152 172.082C 439.216 160.047 445.444 147.49 451.012 136.288C 462.209 113.761 473.793 90.471 482.707 73.4372C 496.346 47.4222 502.024 36.6795 511.898 42.2331C 521.828 47.8214 517.214 59.2062 506.071 86.731C 498.763 104.78 488.416 128.851 478.4 152.142C 473.494 163.561 467.989 176.343 462.761 188.674C 470.431 177.879 478.345 166.615 485.4 156.558C 499.677 136.218 514.442 115.202 525.703 99.8947C 542.893 76.5437 549.996 66.8944 559.004 74.0966C 568.013 81.325 561.831 91.7726 546.948 117.007C 537.168 133.546 523.537 155.517 510.363 176.777C 503.906 187.19 496.661 198.844 489.763 210.107C 498.803 200.813 508.166 191.103 516.513 182.426C 533.498 164.785 551.075 146.545 564.367 133.364C 584.644 113.241 593.046 104.893 600.921 113.588C 608.804 122.256 601.236 131.515 582.975 153.886C 570.997 168.542 554.445 187.901 538.436 206.636C 530.553 215.843 521.734 226.16 513.3 236.139C 523.537 228.52 534.121 220.546 543.578 213.422C 562.879 198.896 582.825 183.875 597.858 173.106C 620.757 156.697 630.246 149.894 636.798 159.821C 643.35 169.748 634.585 177.575 613.402 196.501C 599.511 208.909 580.439 225.171 562.005 240.894C 552.87 248.669 542.657 257.381 532.868 265.816C 544.035 260.071 555.61 254.032 565.942 248.635C 587.077 237.588 608.93 226.186 625.309 218.125C 650.295 205.838 660.626 200.77 665.698 211.686C 670.761 222.602 660.989 228.833 637.396 243.853C 621.954 253.694 600.819 266.449 580.384 278.789C 570.194 284.941 558.776 291.831 547.838 298.521C 559.697 294.773 572.013 290.79 583.014 287.249C 605.488 280.004 628.711 272.515 646.051 267.387C 672.509 259.568 683.447 256.349 686.896 268.02C 690.33 279.691 679.809 284.117 654.382 294.859C 637.751 301.879 615.072 310.808 593.157 319.434C 582.187 323.755 569.903 328.589 558.122 333.3C 570.336 331.669 583.006 329.881 594.33 328.302C 617.568 325.031 641.609 321.655 659.485 319.607C 686.755 316.475 698.039 315.165 699.771 327.322C 701.512 339.427 690.495 341.987 663.902 348.165C 646.492 352.217 622.868 357.094 600.031 361.806C 588.613 364.157 575.825 366.804 563.548 369.416C 575.636 369.937 588.235 370.344 599.496 370.718C 622.954 371.498 647.232 372.297 665.225 373.364C 692.645 374.961 704 375.629 704 387.925C 704 389.131 703.89 390.216 703.661 391.162C 703.89 392.125 704 393.209 704 394.416C 704 395.639 703.89 396.733 703.661 397.687C 703.89 398.633 704 399.726 704 400.95C 704 402.182 703.89 403.267 703.661 404.23C 703.89 405.193 704 406.278 704 407.51C 704 408.733 703.89 409.827 703.661 410.79C 703.89 411.736 704 412.82 704 414.061C 704 415.294 703.89 416.387 703.661 417.35C 703.89 418.313 704 419.398 704 420.63C 704 421.862 703.89 422.947 703.661 423.91C 703.89 424.873 704 425.958 704 427.19C 704 428.44 703.874 429.525 703.661 430.488C 703.874 431.451 704 432.536 704 433.776C 704 435.017 703.89 436.102 703.661 437.065C 703.89 438.028 704 439.113 704 440.354C 704 441.595 703.874 442.679 703.661 443.66C 703.874 444.623 704 445.708 704 446.949C 704 448.198 703.874 449.3 703.661 450.272C 703.874 451.244 704 452.338 704 453.587C 703.992 459.314 699.763 463.983 694.543 463.983Z"/>
<path id="path1_fill" d="M 142.724 213.24C 133.316 213.24 124.057 211.821 114.948 208.984C 105.839 205.997 97.9988 201.741 91.4281 196.216L 99.9401 183C 106.809 188.227 113.679 192.184 120.548 194.872C 127.417 197.411 134.66 198.68 142.276 198.68C 150.788 198.68 157.508 197.037 162.436 193.752C 167.513 190.317 170.052 185.539 170.052 179.416C 170.052 176.579 169.38 174.189 168.036 172.248C 166.692 170.157 164.676 168.365 161.988 166.872C 159.3 165.379 155.865 164.035 151.684 162.84C 147.503 161.645 142.649 160.376 137.124 159.032C 130.105 157.24 124.057 155.523 118.98 153.88C 113.903 152.237 109.721 150.296 106.436 148.056C 103.151 145.816 100.761 143.128 99.2681 139.992C 97.7748 136.856 97.0281 132.973 97.0281 128.344C 97.0281 122.52 98.1481 117.368 100.388 112.888C 102.777 108.259 105.988 104.451 110.02 101.464C 114.052 98.328 118.756 96.0133 124.132 94.52C 129.657 92.8773 135.556 92.056 141.828 92.056C 150.639 92.056 158.852 93.4747 166.468 96.312C 174.084 99.1493 180.505 102.883 185.732 107.512L 176.772 119.384C 171.844 115.053 166.319 111.843 160.196 109.752C 154.073 107.512 147.801 106.392 141.38 106.392C 134.212 106.392 128.089 107.96 123.012 111.096C 118.084 114.083 115.62 118.936 115.62 125.656C 115.62 128.344 116.068 130.584 116.964 132.376C 118.009 134.168 119.652 135.736 121.892 137.08C 124.132 138.424 126.969 139.619 130.404 140.664C 133.988 141.709 138.244 142.829 143.172 144.024C 150.937 145.816 157.657 147.683 163.332 149.624C 169.156 151.416 173.935 153.581 177.668 156.12C 181.551 158.659 184.388 161.645 186.18 165.08C 188.121 168.515 189.092 172.696 189.092 177.624C 189.092 188.525 184.911 197.187 176.548 203.608C 168.185 210.029 156.911 213.24 142.724 213.24ZM 212.868 47.48L 232.58 47.48L 232.58 180.76C 232.58 185.091 233.7 188.525 235.94 191.064C 238.329 193.453 241.614 194.648 245.796 194.648C 247.438 194.648 249.38 194.424 251.62 193.976C 253.86 193.379 255.95 192.707 257.892 191.96L 261.028 207.864C 257.742 209.208 253.86 210.328 249.38 211.224C 244.9 212.12 240.942 212.568 237.508 212.568C 229.892 212.568 223.844 210.403 219.364 206.072C 215.033 201.741 212.868 195.693 212.868 187.928L 212.868 47.48ZM 276.513 211L 276.513 94.072L 296.225 94.072L 296.225 211L 276.513 211ZM 276.513 72.12L 276.513 47.48L 296.225 47.48L 296.225 72.12L 276.513 72.12ZM 429.61 211L 409.898 211L 409.898 145.592C 409.898 133.048 407.957 123.939 404.074 118.264C 400.341 112.589 394.592 109.752 386.826 109.752C 382.794 109.752 378.762 110.573 374.73 112.216C 370.698 113.709 366.89 115.8 363.306 118.488C 359.722 121.176 356.586 124.387 353.898 128.12C 351.21 131.853 349.194 135.96 347.85 140.44L 347.85 211L 328.138 211L 328.138 94.072L 346.058 94.072L 346.058 119.16C 350.688 110.947 357.333 104.376 365.994 99.448C 374.805 94.52 384.362 92.056 394.666 92.056C 401.386 92.056 406.986 93.3253 411.466 95.864C 415.946 98.2533 419.53 101.688 422.218 106.168C 424.906 110.499 426.773 115.651 427.818 121.624C 429.013 127.597 429.61 134.093 429.61 141.112L 429.61 211ZM 542.695 211L 502.375 153.88L 479.975 174.936L 479.975 211L 460.263 211L 460.263 47.48L 479.975 47.48L 479.975 155L 540.007 94.296L 561.735 94.296L 515.143 142.68L 563.975 211L 542.695 211ZM 586.389 242.808C 588.331 243.107 590.272 243.331 592.213 243.48C 594.155 243.629 595.648 243.704 596.693 243.704C 598.485 243.704 600.053 243.256 601.397 242.36C 602.891 241.613 604.309 240.045 605.653 237.656C 607.147 235.267 608.789 231.907 610.581 227.576C 612.373 223.395 614.613 217.869 617.301 211L 567.797 94.072L 588.181 94.072L 628.053 193.304L 664.341 94.072L 683.157 94.072L 626.261 241.688C 624.171 246.915 620.661 251.469 615.733 255.352C 610.955 259.384 604.309 261.4 595.797 261.4C 594.453 261.4 593.035 261.325 591.541 261.176C 590.197 261.027 588.48 260.728 586.389 260.28L 586.389 242.808Z"/>
<path id="path2_fill" d="M 18.7496 37.5354C 29.1047 37.5354 37.4992 29.1328 37.4992 18.7677C 37.4992 8.40257 29.1047 0 18.7496 0C 8.39447 0 0 8.40257 0 18.7677C 0 29.1328 8.39447 37.5354 18.7496 37.5354Z"/>
<path id="path3_stroke" d="M 166.693 9.69192L 164.412 16.31L 164.412 16.31L 166.693 9.69192ZM 164.342 67.9852L 166.546 74.6293L 166.546 74.6293L 164.342 67.9852ZM 35.3602 67.922L 37.6263 61.2989L 37.6262 61.2989L 35.3602 67.922ZM 33.4183 9.87036L 31.112 3.26121L 31.1118 3.26126L 33.4183 9.87036ZM 100.5 7C 125.138 6.97942 147.378 10.4107 164.412 16.31L 168.973 3.07383C 150.742 -3.17926 126.21 -6.97942 100.5 -7L 100.5 7ZM 164.412 16.31C 174.51 19.7658 181.973 23.7568 187.326 28.275C 192.601 32.6805 194 36.1873 194 38.1586L 208 38.1586C 208 30.0815 202.868 23.0154 196.3 17.5299C 189.811 12.157 180.12 6.93885 168.973 3.07382L 164.412 16.31ZM 194 38.1586C 194 40.306 192.446 44.0858 186.775 48.7592C 181.034 53.537 173.004 57.7629 162.139 61.3411L 166.546 74.6293C 178.494 70.6413 188.794 65.1896 195.678 59.5636C 202.632 53.8332 208 46.4828 208 38.1586L 194 38.1586ZM 162.139 61.3411C 145.528 66.8829 123.939 69.7063 100.5 69.6913L 100.5 83.6913C 124.854 83.6764 148.659 80.5284 166.546 74.6293L 162.139 61.3411ZM 100.5 69.6913C 76.4202 69.704 54.3605 67.0649 37.6263 61.2989L 33.0942 74.5451C 51.2378 80.7122 75.5791 83.6787 100.5 83.6913L 100.5 69.6913ZM 37.6262 61.2989C 27.1596 57.7459 19.4746 53.5213 13.9603 48.7461C 8.52554 44.0874 7 40.3024 7 38.1586L -7 38.1586C -7 46.2862 -1.87945 53.6078 4.84887 59.3754C 11.4978 65.0265 21.4929 70.5478 33.0943 74.5451L 37.6262 61.2989ZM 7 38.1586C 7 36.1317 8.36288 32.655 13.4074 28.3349C 18.5709 23.8638 25.7906 19.9209 35.7248 16.4795L 31.1118 3.26126C 20.0995 7.12984 10.6101 12.3476 4.301 17.7014C -2.12697 23.2062 -7 30.2186 -7 38.1586L 7 38.1586ZM 35.7246 16.4795C 52.8104 10.4863 75.615 6.97954 100.5 7L 100.5 -7C 74.5454 -6.97954 49.4234 -3.09778 31.112 3.26121L 35.7246 16.4795Z"/>
<path id="path4_stroke" d="M 26.745 69.8543L 20.6797 66.3599L 20.6797 66.3599L 26.745 69.8543ZM 68.2007 17.3002L 63.6028 12.022L 63.6028 12.022L 68.2007 17.3002ZM 109.976 1.773L 106.476 7.8355L 106.476 7.83552L 109.976 1.773ZM 117.476 48.4597L 124.332 49.8708L 124.332 49.8708L 117.476 48.4597ZM 93.1166 108.167L 99.182 111.662L 99.182 111.662L 93.1166 108.167ZM 52.9852 160.269L 48.3758 155.001L 48.3757 155.001L 52.9852 160.269ZM 9.5618 176.061L 6.06215 182.124L 6.06238 182.124L 9.5618 176.061ZM 1.77522 132.952L 8.65258 134.257L 8.65259 134.257L 1.77522 132.952ZM 32.8104 73.3488C 45.1013 51.9745 59.1829 34.4023 72.7985 22.5784L 63.6028 12.022C 49.0838 24.7064 33.541 44.0777 20.6797 66.3599L 32.8104 73.3488ZM 72.7985 22.5784C 80.8344 15.5484 88.0164 11.0715 94.6007 8.68683C 101.049 6.31385 104.777 6.85456 106.476 7.8355L 113.475 -4.28949C 106.478 -8.32829 97.7937 -7.40617 89.7656 -4.45172C 81.8736 -1.50893 72.5162 4.28756 63.6028 12.022L 72.7985 22.5784ZM 106.476 7.83552C 108.33 8.90554 110.826 12.1392 112.038 19.3955C 113.305 26.762 112.951 35.8385 110.619 47.0486L 124.332 49.8708C 126.85 37.5191 127.277 25.8678 125.847 17.0891C 124.362 8.20034 120.684 -0.128437 113.475 -4.28951L 106.476 7.83552ZM 110.619 47.0486C 107.117 64.2217 98.7743 84.3546 87.0513 104.673L 99.182 111.662C 111.335 90.5371 120.502 68.3259 124.332 49.8708L 110.619 47.0486ZM 87.0513 104.673C 75.0321 125.56 61.7268 143.371 48.3758 155.001L 57.5946 165.537C 71.9955 152.887 86.7217 133.264 99.182 111.662L 87.0513 104.673ZM 48.3757 155.001C 40.0717 162.302 32.5764 166.856 25.6894 169.251C 18.9425 171.636 14.9102 171.066 13.0612 169.999L 6.06238 182.124C 13.1028 186.188 22.0029 185.403 30.3556 182.451C 38.5682 179.508 48.3398 173.6 57.5947 165.537L 48.3757 155.001ZM 13.0614 169.999C 11.3117 168.989 8.98267 166.072 7.7634 159.536C 6.47334 152.824 6.66782 144.591 8.65258 134.257L -5.10214 131.648C -7.25546 143.128 -7.48051 153.96 -5.99917 162.104C -4.44704 170.424 -0.813755 178.155 6.06215 182.124L 13.0614 169.999ZM 8.65259 134.257C 12.0015 116.446 20.3602 94.9178 32.8104 73.3488L 20.6797 66.3599C 7.73171 88.8746 -1.45827 112.594 -5.10214 131.648L 8.65259 134.257Z"/>
<path id="path5_stroke" d="M 26.7251 108.019L 20.6656 111.523L 20.6656 111.523L 26.7251 108.019ZM 1.94143 45.8219L 8.81141 44.4791L 8.8114 44.479L 1.94143 45.8219ZM 9.36547 1.84001L 12.875 7.89666L 12.8752 7.89657L 9.36547 1.84001ZM 53.5195 18.6522L 48.8693 23.8844L 48.8694 23.8845L 53.5195 18.6522ZM 93.0328 69.5951L 86.9733 73.0997L 86.9733 73.0997L 93.0328 69.5951ZM 118.087 130.418L 111.22 131.776L 111.22 131.776L 118.087 130.418ZM 110.069 175.961L 106.56 169.905L 106.56 169.905L 110.069 175.961ZM 68.868 161.184L 73.4364 155.881L 73.4364 155.881L 68.868 161.184ZM 32.7846 104.514C 20.4227 83.1806 12.2455 62.1924 8.81141 44.4791L -4.92856 47.1648C -1.20102 66.0898 7.80286 89.242 20.6656 111.523L 32.7846 104.514ZM 8.8114 44.479C 6.73974 33.9985 6.45152 25.5318 7.67606 18.6293C 8.84306 11.8489 11.1751 8.88167 12.875 7.89666L 5.85591 -4.21664C -1.13223 -0.167334 -4.66944 7.82051 -6.12107 16.2546C -7.51517 24.5665 -7.17138 35.5736 -4.92855 47.1648L 8.8114 44.479ZM 12.8752 7.89657C 14.7249 6.82466 18.7657 6.27453 25.6482 8.84615C 32.6553 11.4257 40.332 16.2645 48.8693 23.8844L 58.1698 13.4201C 48.7356 5.06724 38.8621 -1.12325 30.5484 -4.26829C 22.1101 -7.4212 13.0596 -8.39108 5.85576 -4.21655L 12.8752 7.89657ZM 48.8694 23.8845C 61.9836 35.4978 75.242 52.7863 86.9733 73.0997L 99.0923 66.0905C 86.8778 45.0011 72.231 25.9589 58.1696 13.42L 48.8694 23.8845ZM 86.9733 73.0997C 99.0492 93.954 107.821 114.388 111.22 131.776L 124.954 129.06C 121.196 110.254 111.567 87.6844 99.0923 66.0905L 86.9733 73.0997ZM 111.22 131.776C 113.392 142.624 113.59 151.401 112.224 158.572C 110.918 165.617 108.409 168.833 106.56 169.905L 113.579 182.018C 120.61 177.943 124.374 169.837 125.989 161.123C 127.544 152.533 127.31 141.111 124.954 129.06L 111.22 131.776ZM 106.56 169.905C 104.813 170.916 101.13 171.48 94.8679 169.274C 88.4155 167.041 81.3893 162.763 73.4364 155.881L 64.2996 166.488C 73.1615 174.09 82.4271 179.696 90.2173 182.479C 98.1974 185.29 106.707 186 113.579 182.018L 106.56 169.905ZM 73.4364 155.881C 59.694 144.082 45.2356 126.082 32.7846 104.514L 20.6656 111.523C 33.6867 133.996 49.6279 153.812 64.2996 166.488L 73.4364 155.881Z"/>
</defs>
</svg>
