<svg width="685" height="699" viewBox="0 0 685 699" version="1.1" xmlns="http://www.w3.org/2000/svg" xmlns:xlink="http://www.w3.org/1999/xlink">
    <title>Group</title>
    <desc>Created using Figma</desc>
    <g id="Canvas" transform="translate(689 670)">
        <g id="Group">
            <g id="slinky">
                <g id="Group">
                    <g id="Vector">
                        <use xlink:href="#path0_fill" transform="translate(-689 -670)" fill="#DC322F"/>
                    </g>
                </g>
            </g>
            <g id="slinky">
                <use xlink:href="#path1_fill" transform="translate(-734 -233)" fill="#2F80ED"/>
            </g>
            <g id="logo">
                <g id="Vector">
                    <use xlink:href="#path2_fill" transform="translate(-366.25 -342.944)" fill="#00D8FF"/>
                </g>
                <g id="Vector">
                    <use xlink:href="#path3_stroke" transform="translate(-448 -362.335)" fill="#00D8FF"/>
                </g>
                <g id="Vector">
                    <use xlink:href="#path4_stroke" transform="translate(-407.431 -413)" fill="#00D8FF"/>
                </g>
                <g id="Vector">
                    <use xlink:href="#path5_stroke" transform="translate(-407.379 -412.796)" fill="#00D8FF"/>
                </g>
            </g>
        </g>
    </g>
    <defs>
        <path id="path0_fill" d="M 675.798 463.983C 661.975 463.983 508.35 463.983 499.546 463.983C 490.881 463.983 482.713 460.659 482.713 450.255C 482.713 449.014 482.835 447.912 483.058 446.949C 482.835 445.968 482.713 444.875 482.713 443.625C 482.713 442.402 482.835 441.309 483.042 440.345C 482.835 439.382 482.713 438.289 482.713 437.048C 482.713 435.816 482.835 434.722 483.042 433.759C 482.835 432.796 482.713 431.711 482.713 430.479C 482.713 429.23 482.835 428.145 483.042 427.182C 482.835 426.218 482.713 425.134 482.713 423.893C 482.713 422.652 482.835 421.567 483.042 420.604C 482.835 419.641 482.713 418.556 482.713 417.315C 482.713 416.083 482.835 414.99 483.042 414.044C 482.835 413.081 482.713 411.996 482.713 410.773C 482.713 409.532 482.835 408.447 483.042 407.484C 482.835 406.529 482.713 405.436 482.713 404.212C 482.713 402.972 482.835 401.896 483.042 400.932C 482.835 399.978 482.713 398.893 482.713 397.67C 482.713 396.446 482.835 395.361 483.042 394.416C 482.835 393.461 482.713 392.368 482.713 391.162C 482.713 387.196 483.893 384.706 485.839 383.126C 483.64 381.304 482.521 378.805 482.291 375.282C 481.709 366.761 486.973 363.255 500.489 359.445C 486.605 360.513 480.636 359.064 478.882 350.725C 477.127 342.464 481.786 338.064 494.428 331.964C 481.035 335.435 475.005 335.001 472.131 327.148C 469.227 319.226 473.296 314.037 485.18 305.628C 472.2 311.581 466.101 312.31 462.132 304.995C 458.125 297.61 461.558 291.727 472.377 281.106C 460.125 289.514 454.125 291.397 449.16 284.811C 444.149 278.147 446.808 271.682 456.24 259.065C 445.107 269.738 439.383 272.775 433.507 267.083C 427.706 261.477 429.346 254.7 436.709 240.92C 427.385 253.078 422.19 256.948 415.7 252.409C 409.256 247.932 409.861 241.042 415.095 226.429C 407.708 239.792 403.149 244.4 396.154 241.111C 389.212 237.849 388.829 230.985 391.901 215.782C 386.515 230.143 382.669 235.428 375.313 233.458C 367.942 231.453 366.655 224.659 367.636 208.814C 364.264 224.234 361.192 230.204 353.606 229.596C 345.776 228.902 343.684 221.978 342.496 204.857C 341.309 221.978 339.224 228.902 331.386 229.596C 324.023 230.247 320.743 224.251 317.357 208.797C 318.338 224.676 317.05 231.471 309.672 233.466C 302.37 235.419 298.5 230.186 293.137 215.921C 296.186 231.037 295.788 237.857 288.869 241.111C 281.858 244.417 277.299 239.784 269.898 226.403C 275.131 241.059 275.752 247.94 269.308 252.418C 262.772 256.956 257.592 253.06 248.214 240.808C 255.631 254.692 257.294 261.486 251.463 267.109C 245.632 272.784 239.931 269.808 228.875 259.212C 238.223 271.734 240.843 278.19 235.847 284.794C 230.867 291.388 224.86 289.497 212.577 281.08C 223.435 291.709 226.867 297.601 222.868 305.003C 218.899 312.301 212.815 311.607 199.858 305.654C 211.712 314.054 215.78 319.234 212.876 327.148C 210.011 334.975 204.011 335.435 190.695 332.007C 203.245 338.082 207.865 342.472 206.118 350.707C 204.348 359.098 198.303 360.522 184.166 359.402C 197.943 363.246 203.299 366.743 202.709 375.351C 202.464 378.874 201.353 381.373 199.146 383.178C 201.092 384.775 202.28 387.265 202.28 391.24C 202.28 392.489 202.165 393.583 201.95 394.546C 202.165 395.509 202.28 396.602 202.28 397.852C 202.28 399.101 202.172 400.186 201.95 401.149C 202.172 402.112 202.28 403.197 202.28 404.438C 202.28 405.662 202.172 406.764 201.958 407.727C 202.172 408.681 202.28 409.775 202.28 411.016C 202.28 412.248 202.172 413.341 201.95 414.304C 202.172 415.268 202.28 416.352 202.28 417.593C 202.28 418.834 202.172 419.919 201.958 420.882C 202.172 421.845 202.28 422.93 202.28 424.171C 202.28 425.394 202.172 426.487 201.958 427.442C 202.172 428.405 202.28 429.49 202.28 430.713C 202.28 431.954 202.172 433.039 201.958 434.002C 202.172 434.965 202.28 436.05 202.28 437.291C 202.28 438.514 202.172 439.599 201.958 440.545C 202.172 441.508 202.28 442.593 202.28 443.825C 202.28 445.049 202.172 446.125 201.958 447.079C 202.172 448.034 202.28 449.11 202.28 450.333C 202.28 460.746 194.112 464 185.446 464C 179.224 464 14.8721 464 9.19453 464C 4.12221 464 1.46143e-06 459.332 1.46143e-06 453.587C 1.46143e-06 452.364 0.114932 451.288 0.321809 450.333C 0.114932 449.361 1.46143e-06 448.285 1.46143e-06 447.062C 1.46143e-06 445.838 0.114931 444.762 0.32947 443.808C 0.114931 442.844 1.46143e-06 441.768 1.46143e-06 440.545C 1.46143e-06 439.304 0.114931 438.219 0.32947 437.256C 0.114931 436.31 1.46143e-06 435.217 1.46143e-06 433.985C 1.46143e-06 432.744 0.114931 431.659 0.32947 430.713C 0.114931 429.75 1.46143e-06 428.657 1.46143e-06 427.433C 1.46143e-06 426.201 0.114931 425.116 0.32947 424.153C 0.114931 423.19 1.46143e-06 422.097 1.46143e-06 420.873C 1.46143e-06 419.632 0.114931 418.548 0.32947 417.584C 0.114931 416.613 1.46143e-06 415.528 1.46143e-06 414.296C 1.46143e-06 413.063 0.114931 411.97 0.32947 411.007C 0.114931 410.044 1.46143e-06 408.959 1.46143e-06 407.718C 1.46143e-06 406.486 0.114931 405.393 0.32947 404.429C 0.114931 403.466 1.46143e-06 402.381 1.46143e-06 401.149C 1.46143e-06 399.9 0.114931 398.806 0.337132 397.843C 0.114931 396.88 1.46143e-06 395.787 1.46143e-06 394.537C 1.46143e-06 393.288 0.114931 392.194 0.337132 391.222C 0.114931 390.259 1.46143e-06 389.157 1.46143e-06 387.925C 1.46143e-06 375.629 11.0488 374.961 37.7359 373.364C 55.2438 372.314 78.8507 371.507 101.684 370.735C 112.641 370.362 124.892 369.954 136.707 369.468C 124.754 366.847 112.311 364.209 101.201 361.849C 78.9733 357.137 55.987 352.261 39.0614 348.191C 13.1941 342.013 2.49018 339.444 4.16052 327.365C 5.84619 315.225 16.8413 316.501 43.3752 319.633C 60.7758 321.673 84.1682 325.057 106.794 328.311C 117.805 329.89 130.118 331.669 141.994 333.309C 130.539 328.589 118.579 323.755 107.921 319.443C 86.5895 310.817 64.5226 301.897 48.3249 294.877C 23.584 284.151 13.3551 279.7 16.6957 268.046C 20.0517 256.349 30.7021 259.603 56.4314 267.404C 73.3034 272.524 95.8913 280.021 117.751 287.258C 128.463 290.807 140.454 294.781 152.009 298.539C 141.374 291.848 130.271 284.967 120.356 278.815C 100.466 266.475 79.9081 253.711 64.8674 243.879C 41.9041 228.85 32.4107 222.628 37.3298 211.703C 42.2718 200.779 52.3245 205.855 76.6287 218.142C 92.5582 226.195 113.821 237.606 134.386 248.652C 144.446 254.049 155.709 260.098 166.582 265.851C 157.058 257.408 147.112 248.695 138.232 240.92C 120.287 225.188 101.722 208.927 88.2215 196.518C 67.6181 177.592 59.0748 169.765 65.442 159.838C 71.8322 149.92 81.0574 156.706 103.331 173.115C 117.943 183.875 137.343 198.896 156.115 213.413C 165.333 220.537 175.654 228.52 185.615 236.139C 177.416 226.177 168.835 215.86 161.172 206.662C 145.595 187.927 129.474 168.568 117.828 153.903C 100.044 131.533 92.6885 122.274 100.358 113.588C 108.02 104.928 116.188 113.249 135.926 133.381C 148.859 146.571 165.954 164.811 182.473 182.452C 190.603 191.129 199.705 200.848 208.509 210.142C 201.782 198.87 194.732 187.198 188.45 176.777C 175.631 155.526 162.368 133.554 152.867 117.015C 138.37 91.7813 132.378 81.3423 141.136 74.114C 149.894 66.9031 156.82 76.5697 173.539 99.9207C 184.504 115.219 198.862 136.244 212.761 156.576C 219.627 166.633 227.327 177.896 234.782 188.674C 229.687 176.352 224.346 163.57 219.573 152.159C 209.834 128.877 199.759 104.797 192.641 86.757C 181.791 59.2322 177.309 47.83 186.971 42.2591C 196.625 36.6708 202.111 47.4569 215.374 73.4545C 224.063 90.4883 235.334 113.779 246.222 136.305C 251.654 147.516 257.73 160.099 263.63 172.134C 260.312 159.049 256.803 145.46 253.669 133.329C 247.279 108.581 240.659 82.991 236.138 63.892C 229.243 34.7618 226.392 22.6915 236.713 18.8995C 246.996 15.0987 250.926 26.7092 260.397 54.7199C 266.595 73.0554 274.464 98.0464 282.08 122.196C 285.889 134.275 290.156 147.803 294.317 160.776C 292.869 147.334 291.306 133.381 289.896 120.92C 287.015 95.3043 284.042 68.8208 282.234 49.1143C 279.468 19.0643 278.318 6.62956 289.045 4.72052C 299.749 2.75942 301.979 14.9512 307.45 44.2376C 311.02 63.4147 315.326 89.447 319.502 114.629C 321.586 127.203 323.923 141.303 326.237 154.832C 326.643 141.451 327.019 127.567 327.348 115.15C 328.038 89.2995 328.735 62.5643 329.67 42.7364C 331.08 12.5129 331.662 4.23703e-06 342.519 4.23703e-06C 353.376 4.23703e-06 353.966 12.5129 355.384 42.7364C 356.303 62.5643 357.016 89.3082 357.698 115.15C 358.02 127.567 358.395 141.451 358.816 154.832C 361.123 141.295 363.452 127.203 365.536 114.629C 369.712 89.447 374.018 63.4147 377.596 44.2376C 383.059 14.9512 385.243 2.75942 396.001 4.72052C 406.72 6.62956 405.578 19.073 402.82 49.123C 401.004 68.8294 398.023 95.3217 395.142 120.937C 393.74 133.407 392.17 147.352 390.721 160.802C 394.897 147.82 399.165 134.283 402.966 122.213C 410.589 98.0551 418.466 73.0727 424.665 54.7373C 434.135 26.7265 438.043 15.1334 448.371 18.9081C 458.684 22.7089 455.826 34.7792 448.93 63.9267C 444.402 83.0431 437.79 108.642 431.384 133.407C 428.258 145.503 424.757 159.031 421.462 172.082C 427.362 160.047 433.422 147.49 438.84 136.288C 449.735 113.761 461.006 90.471 469.679 73.4372C 482.95 47.4222 488.475 36.6795 498.083 42.2331C 507.745 47.8214 503.255 59.2062 492.413 86.731C 485.302 104.78 475.235 128.851 465.488 152.142C 460.715 163.561 455.359 176.343 450.271 188.674C 457.734 177.879 465.435 166.616 472.3 156.558C 486.191 136.218 500.558 115.202 511.515 99.8947C 528.241 76.5437 535.152 66.8944 543.918 74.0967C 552.683 81.325 546.668 91.7726 532.187 117.007C 522.671 133.546 509.407 155.517 496.589 176.777C 490.306 187.19 483.257 198.844 476.545 210.107C 485.341 200.813 494.451 191.103 502.573 182.426C 519.1 164.785 536.202 146.545 549.135 133.364C 568.865 113.241 577.041 104.893 584.703 113.588C 592.373 122.256 585.009 131.515 567.241 153.886C 555.587 168.542 539.481 187.901 523.904 206.636C 516.234 215.843 507.653 226.16 499.447 236.139C 509.407 228.52 519.705 220.546 528.908 213.422C 547.687 198.896 567.095 183.875 581.722 173.106C 604.004 156.697 613.237 149.894 619.612 159.821C 625.986 169.748 617.458 177.575 596.847 196.501C 583.331 208.909 564.774 225.171 546.837 240.894C 537.949 248.669 528.011 257.382 518.487 265.816C 529.352 260.072 540.615 254.032 550.668 248.635C 571.233 237.588 592.495 226.186 608.433 218.125C 632.744 205.838 642.797 200.77 647.731 211.686C 652.658 222.602 643.15 228.833 620.194 243.853C 605.168 253.694 584.603 266.449 564.72 278.789C 554.805 284.941 543.695 291.831 533.053 298.521C 544.592 294.773 556.575 290.79 567.279 287.249C 589.147 280.004 611.743 272.515 628.615 267.387C 654.359 259.568 665.002 256.349 668.358 268.02C 671.699 279.691 661.462 284.117 636.721 294.859C 620.539 301.879 598.472 310.808 577.148 319.434C 566.475 323.755 554.522 328.589 543.059 333.3C 554.943 331.669 567.272 329.882 578.29 328.302C 600.901 325.031 624.293 321.655 641.686 319.607C 668.22 316.475 679.2 315.165 680.885 327.322C 682.579 339.427 671.859 341.987 645.985 348.165C 629.044 352.217 606.057 357.094 583.837 361.806C 572.727 364.157 560.284 366.804 548.339 369.416C 560.1 369.937 572.359 370.344 583.316 370.718C 606.142 371.498 629.764 372.297 647.272 373.364C 673.951 374.961 685 375.629 685 387.925C 685 389.131 684.893 390.216 684.67 391.162C 684.893 392.125 685 393.209 685 394.416C 685 395.639 684.893 396.733 684.67 397.687C 684.893 398.633 685 399.726 685 400.95C 685 402.182 684.893 403.267 684.67 404.23C 684.893 405.193 685 406.278 685 407.51C 685 408.733 684.893 409.827 684.67 410.79C 684.893 411.736 685 412.82 685 414.061C 685 415.294 684.893 416.387 684.67 417.35C 684.893 418.313 685 419.398 685 420.63C 685 421.862 684.893 422.947 684.67 423.91C 684.893 424.873 685 425.958 685 427.19C 685 428.44 684.877 429.525 684.67 430.488C 684.877 431.451 685 432.536 685 433.776C 685 435.017 684.893 436.102 684.67 437.065C 684.893 438.028 685 439.113 685 440.354C 685 441.595 684.877 442.68 684.67 443.66C 684.877 444.623 685 445.708 685 446.949C 685 448.198 684.877 449.3 684.67 450.272C 684.877 451.244 685 452.338 685 453.587C 684.992 459.314 680.878 463.983 675.798 463.983Z"/>
        <path id="path1_fill" d="M 142.724 213.24C 133.316 213.24 124.057 211.821 114.948 208.984C 105.839 205.997 97.9988 201.741 91.4281 196.216L 99.9401 183C 106.809 188.227 113.679 192.184 120.548 194.872C 127.417 197.411 134.66 198.68 142.276 198.68C 150.788 198.68 157.508 197.037 162.436 193.752C 167.513 190.317 170.052 185.539 170.052 179.416C 170.052 176.579 169.38 174.189 168.036 172.248C 166.692 170.157 164.676 168.365 161.988 166.872C 159.3 165.379 155.865 164.035 151.684 162.84C 147.503 161.645 142.649 160.376 137.124 159.032C 130.105 157.24 124.057 155.523 118.98 153.88C 113.903 152.237 109.721 150.296 106.436 148.056C 103.151 145.816 100.761 143.128 99.2681 139.992C 97.7748 136.856 97.0281 132.973 97.0281 128.344C 97.0281 122.52 98.1481 117.368 100.388 112.888C 102.777 108.259 105.988 104.451 110.02 101.464C 114.052 98.328 118.756 96.0133 124.132 94.52C 129.657 92.8773 135.556 92.056 141.828 92.056C 150.639 92.056 158.852 93.4747 166.468 96.312C 174.084 99.1493 180.505 102.883 185.732 107.512L 176.772 119.384C 171.844 115.053 166.319 111.843 160.196 109.752C 154.073 107.512 147.801 106.392 141.38 106.392C 134.212 106.392 128.089 107.96 123.012 111.096C 118.084 114.083 115.62 118.936 115.62 125.656C 115.62 128.344 116.068 130.584 116.964 132.376C 118.009 134.168 119.652 135.736 121.892 137.08C 124.132 138.424 126.969 139.619 130.404 140.664C 133.988 141.709 138.244 142.829 143.172 144.024C 150.937 145.816 157.657 147.683 163.332 149.624C 169.156 151.416 173.935 153.581 177.668 156.12C 181.551 158.659 184.388 161.645 186.18 165.08C 188.121 168.515 189.092 172.696 189.092 177.624C 189.092 188.525 184.911 197.187 176.548 203.608C 168.185 210.029 156.911 213.24 142.724 213.24ZM 212.868 47.48L 232.58 47.48L 232.58 180.76C 232.58 185.091 233.7 188.525 235.94 191.064C 238.329 193.453 241.614 194.648 245.796 194.648C 247.438 194.648 249.38 194.424 251.62 193.976C 253.86 193.379 255.95 192.707 257.892 191.96L 261.028 207.864C 257.742 209.208 253.86 210.328 249.38 211.224C 244.9 212.12 240.942 212.568 237.508 212.568C 229.892 212.568 223.844 210.403 219.364 206.072C 215.033 201.741 212.868 195.693 212.868 187.928L 212.868 47.48ZM 276.513 211L 276.513 94.072L 296.225 94.072L 296.225 211L 276.513 211ZM 276.513 72.12L 276.513 47.48L 296.225 47.48L 296.225 72.12L 276.513 72.12ZM 429.61 211L 409.898 211L 409.898 145.592C 409.898 133.048 407.957 123.939 404.074 118.264C 400.341 112.589 394.592 109.752 386.826 109.752C 382.794 109.752 378.762 110.573 374.73 112.216C 370.698 113.709 366.89 115.8 363.306 118.488C 359.722 121.176 356.586 124.387 353.898 128.12C 351.21 131.853 349.194 135.96 347.85 140.44L 347.85 211L 328.138 211L 328.138 94.072L 346.058 94.072L 346.058 119.16C 350.688 110.947 357.333 104.376 365.994 99.448C 374.805 94.52 384.362 92.056 394.666 92.056C 401.386 92.056 406.986 93.3253 411.466 95.864C 415.946 98.2533 419.53 101.688 422.218 106.168C 424.906 110.499 426.773 115.651 427.818 121.624C 429.013 127.597 429.61 134.093 429.61 141.112L 429.61 211ZM 542.695 211L 502.375 153.88L 479.975 174.936L 479.975 211L 460.263 211L 460.263 47.48L 479.975 47.48L 479.975 155L 540.007 94.296L 561.735 94.296L 515.143 142.68L 563.975 211L 542.695 211ZM 586.389 242.808C 588.331 243.107 590.272 243.331 592.213 243.48C 594.155 243.629 595.648 243.704 596.693 243.704C 598.485 243.704 600.053 243.256 601.397 242.36C 602.891 241.613 604.309 240.045 605.653 237.656C 607.147 235.267 608.789 231.907 610.581 227.576C 612.373 223.395 614.613 217.869 617.301 211L 567.797 94.072L 588.181 94.072L 628.053 193.304L 664.341 94.072L 683.157 94.072L 626.261 241.688C 624.171 246.915 620.661 251.469 615.733 255.352C 610.955 259.384 604.309 261.4 595.797 261.4C 594.453 261.4 593.035 261.325 591.541 261.176C 590.197 261.027 588.48 260.728 586.389 260.28L 586.389 242.808Z"/>
        <path id="path2_fill" d="M 18.7496 37.5354C 29.1047 37.5354 37.4992 29.1328 37.4992 18.7677C 37.4992 8.40258 29.1047 0 18.7496 0C 8.39447 0 0 8.40258 0 18.7677C 0 29.1328 8.39447 37.5354 18.7496 37.5354Z"/>
        <path id="path3_stroke" d="M 166.693 9.69192L 164.412 16.31L 164.412 16.31L 166.693 9.69192ZM 164.342 67.9852L 166.546 74.6293L 166.546 74.6293L 164.342 67.9852ZM 35.3602 67.922L 37.6263 61.2989L 37.6262 61.2989L 35.3602 67.922ZM 33.4183 9.87036L 31.112 3.26121L 31.1118 3.26126L 33.4183 9.87036ZM 100.5 7C 125.138 6.97942 147.378 10.4107 164.412 16.31L 168.973 3.07383C 150.741 -3.17926 126.21 -6.97942 100.5 -7L 100.5 7ZM 164.412 16.31C 174.51 19.7658 181.973 23.7568 187.326 28.275C 192.601 32.6805 194 36.1873 194 38.1586L 208 38.1586C 208 30.0815 202.868 23.0154 196.3 17.5299C 189.811 12.157 180.12 6.93885 168.973 3.07382L 164.412 16.31ZM 194 38.1586C 194 40.306 192.446 44.0858 186.775 48.7592C 181.034 53.537 173.004 57.7629 162.139 61.3411L 166.546 74.6293C 178.494 70.6413 188.794 65.1896 195.678 59.5636C 202.632 53.8332 208 46.4828 208 38.1586L 194 38.1586ZM 162.139 61.3411C 145.528 66.8829 123.939 69.7063 100.5 69.6913L 100.5 83.6913C 124.854 83.6764 148.659 80.5284 166.546 74.6293L 162.139 61.3411ZM 100.5 69.6913C 76.4202 69.704 54.3605 67.0649 37.6263 61.2989L 33.0942 74.5451C 51.2378 80.7122 75.5791 83.6787 100.5 83.6913L 100.5 69.6913ZM 37.6262 61.2989C 27.1596 57.7459 19.4746 53.5213 13.9603 48.7461C 8.52554 44.0874 7 40.3024 7 38.1586L -7 38.1586C -7 46.2862 -1.87945 53.6078 4.84887 59.3754C 11.4978 65.0265 21.4929 70.5478 33.0943 74.5451L 37.6262 61.2989ZM 7 38.1586C 7 36.1317 8.36288 32.655 13.4074 28.3349C 18.5709 23.8638 25.7906 19.9209 35.7248 16.4795L 31.1118 3.26126C 20.0995 7.12984 10.6101 12.3476 4.301 17.7014C -2.12697 23.2062 -7 30.2186 -7 38.1586L 7 38.1586ZM 35.7246 16.4795C 52.8104 10.4863 75.615 6.97954 100.5 7L 100.5 -7C 74.5454 -6.97954 49.4234 -3.09778 31.112 3.26121L 35.7246 16.4795Z"/>
        <path id="path4_stroke" d="M 26.745 69.8543L 20.6797 66.3599L 20.6797 66.3599L 26.745 69.8543ZM 68.2007 17.3002L 63.6028 12.022L 63.6028 12.022L 68.2007 17.3002ZM 109.976 1.773L 106.476 7.8355L 106.476 7.83552L 109.976 1.773ZM 117.476 48.4597L 124.332 49.8708L 124.332 49.8708L 117.476 48.4597ZM 93.1166 108.167L 99.182 111.662L 99.182 111.662L 93.1166 108.167ZM 52.9852 160.269L 48.3758 155.001L 48.3757 155.001L 52.9852 160.269ZM 9.5618 176.061L 6.06215 182.124L 6.06238 182.124L 9.5618 176.061ZM 1.77522 132.952L 8.65258 134.257L 8.65259 134.257L 1.77522 132.952ZM 32.8104 73.3488C 45.1013 51.9745 59.1829 34.4023 72.7985 22.5784L 63.6028 12.022C 49.0838 24.7064 33.541 44.0777 20.6797 66.3599L 32.8104 73.3488ZM 72.7985 22.5784C 80.8344 15.5484 88.0164 11.0715 94.6007 8.68683C 101.049 6.31385 104.777 6.85456 106.476 7.8355L 113.475 -4.28949C 106.478 -8.32829 97.7937 -7.40617 89.7656 -4.45172C 81.8736 -1.50893 72.5162 4.28756 63.6028 12.022L 72.7985 22.5784ZM 106.476 7.83552C 108.33 8.90554 110.826 12.1392 112.038 19.3955C 113.305 26.762 112.951 35.8385 110.619 47.0486L 124.332 49.8708C 126.85 37.5191 127.277 25.8678 125.847 17.0891C 124.362 8.20034 120.684 -0.128437 113.475 -4.28951L 106.476 7.83552ZM 110.619 47.0486C 107.117 64.2217 98.7743 84.3546 87.0513 104.673L 99.182 111.662C 111.335 90.5371 120.502 68.3259 124.332 49.8708L 110.619 47.0486ZM 87.0513 104.673C 75.0321 125.56 61.7268 143.371 48.3758 155.001L 57.5946 165.537C 71.9955 152.887 86.7217 133.264 99.182 111.662L 87.0513 104.673ZM 48.3757 155.001C 40.0717 162.302 32.5764 166.856 25.6894 169.251C 18.9425 171.636 14.9102 171.066 13.0612 169.999L 6.06238 182.124C 13.1028 186.188 22.0029 185.403 30.3556 182.451C 38.5682 179.508 48.3398 173.6 57.5947 165.537L 48.3757 155.001ZM 13.0614 169.999C 11.3117 168.989 8.98267 166.072 7.7634 159.536C 6.47334 152.824 6.66782 144.591 8.65258 134.257L -5.10214 131.648C -7.25546 143.128 -7.48051 153.96 -5.99917 162.104C -4.44704 170.424 -0.813755 178.155 6.06215 182.124L 13.0614 169.999ZM 8.65259 134.257C 12.0015 116.446 20.3602 94.9178 32.8104 73.3488L 20.6797 66.3599C 7.73171 88.8746 -1.45827 112.594 -5.10214 131.648L 8.65259 134.257Z"/>
        <path id="path5_stroke" d="M 26.7251 108.019L 20.6656 111.523L 20.6656 111.523L 26.7251 108.019ZM 1.94143 45.8219L 8.81141 44.4791L 8.8114 44.479L 1.94143 45.8219ZM 9.36547 1.84001L 12.875 7.89666L 12.8752 7.89657L 9.36547 1.84001ZM 53.5195 18.6522L 48.8693 23.8844L 48.8694 23.8845L 53.5195 18.6522ZM 93.0328 69.5951L 86.9733 73.0997L 86.9733 73.0997L 93.0328 69.5951ZM 118.087 130.418L 111.22 131.776L 111.22 131.776L 118.087 130.418ZM 110.069 175.961L 106.56 169.905L 106.56 169.905L 110.069 175.961ZM 68.868 161.184L 73.4364 155.881L 73.4364 155.881L 68.868 161.184ZM 32.7846 104.514C 20.4227 83.1806 12.2455 62.1924 8.81141 44.4791L -4.92856 47.1648C -1.20102 66.0898 7.80286 89.242 20.6656 111.523L 32.7846 104.514ZM 8.8114 44.479C 6.73974 33.9985 6.45152 25.5318 7.67606 18.6293C 8.84306 11.8489 11.1751 8.88167 12.875 7.89666L 5.85591 -4.21664C -1.13224 -0.167334 -4.66944 7.82051 -6.12107 16.2546C -7.51517 24.5665 -7.17138 35.5736 -4.92855 47.1648L 8.8114 44.479ZM 12.8752 7.89657C 14.7249 6.82466 18.7657 6.27453 25.6482 8.84615C 32.6553 11.4257 40.332 16.2645 48.8693 23.8844L 58.1698 13.4201C 48.7356 5.06724 38.8621 -1.12325 30.5484 -4.26829C 22.1101 -7.4212 13.0596 -8.39108 5.85576 -4.21655L 12.8752 7.89657ZM 48.8694 23.8845C 61.9836 35.4978 75.242 52.7863 86.9733 73.0997L 99.0923 66.0905C 86.8778 45.0011 72.231 25.9589 58.1696 13.42L 48.8694 23.8845ZM 86.9733 73.0997C 99.0492 93.954 107.821 114.388 111.22 131.776L 124.954 129.06C 121.196 110.254 111.567 87.6844 99.0923 66.0905L 86.9733 73.0997ZM 111.22 131.776C 113.392 142.624 113.59 151.401 112.224 158.572C 110.918 165.617 108.409 168.833 106.56 169.905L 113.579 182.018C 120.61 177.943 124.374 169.837 125.989 161.123C 127.544 152.533 127.31 141.111 124.954 129.06L 111.22 131.776ZM 106.56 169.905C 104.813 170.916 101.13 171.48 94.8678 169.274C 88.4155 167.041 81.3893 162.763 73.4364 155.881L 64.2996 166.488C 73.1615 174.09 82.4271 179.696 90.2173 182.479C 98.1974 185.29 106.707 186 113.579 182.018L 106.56 169.905ZM 73.4364 155.881C 59.694 144.082 45.2356 126.082 32.7846 104.514L 20.6656 111.523C 33.6867 133.996 49.6279 153.812 64.2996 166.488L 73.4364 155.881Z"/>
    </defs>
</svg>
