<svg width="1203" height="399" viewBox="0 0 1203 399" version="1.1" xmlns="http://www.w3.org/2000/svg" xmlns:xlink="http://www.w3.org/1999/xlink">
<title>Frame</title>
<desc>Created using Figma</desc>
<g id="Canvas" transform="translate(-77 636)">
<clipPath id="clip-0" clip-rule="evenodd">
<path d="M 77 -636L 1280 -636L 1280 -237L 77 -237L 77 -636Z" fill="#FFFFFF"/>
</clipPath>
<g id="Frame" clip-path="url(#clip-0)">
<g id="Group">
<g id="slinky">
<use xlink:href="#path0_fill" transform="translate(599 -549)" fill="#FFFFFF"/>
</g>
<g id="Group">
<g id="slinky">
<g id="Group">
<g id="Vector">
<use xlink:href="#path1_fill" transform="translate(117 -593)" fill="#DC322F"/>
</g>
</g>
</g>
<g id="logo">
<g id="Vector">
<use xlink:href="#path2_fill" transform="translate(336.584 -367.756)" fill="#00D8FF"/>
</g>
<g id="Vector">
<use xlink:href="#path3_stroke" transform="translate(282.798 -380.753)" fill="#00D8FF"/>
</g>
<g id="Vector">
<use xlink:href="#path4_stroke" transform="translate(309.489 -414.711)" fill="#00D8FF"/>
</g>
<g id="Vector">
<use xlink:href="#path5_stroke" transform="translate(309.523 -414.575)" fill="#00D8FF"/>
</g>
</g>
</g>
</g>
</g>
</g>
<defs>
<path id="path0_fill" d="M 76.7241 213.24C 67.3161 213.24 58.0575 211.821 48.9481 208.984C 39.8388 205.997 31.9988 201.741 25.4281 196.216L 33.9401 183C 40.8095 188.227 47.6788 192.184 54.5481 194.872C 61.4175 197.411 68.6601 198.68 76.2761 198.68C 84.7881 198.68 91.5081 197.037 96.4361 193.752C 101.513 190.317 104.052 185.539 104.052 179.416C 104.052 176.579 103.38 174.189 102.036 172.248C 100.692 170.157 98.6761 168.365 95.9881 166.872C 93.3001 165.379 89.8655 164.035 85.6841 162.84C 81.5028 161.645 76.6495 160.376 71.1241 159.032C 64.1055 157.24 58.0575 155.523 52.9801 153.88C 47.9028 152.237 43.7215 150.296 40.4361 148.056C 37.1508 145.816 34.7615 143.128 33.2681 139.992C 31.7748 136.856 31.0281 132.973 31.0281 128.344C 31.0281 122.52 32.1481 117.368 34.3881 112.888C 36.7775 108.259 39.9881 104.451 44.0201 101.464C 48.0521 98.328 52.7561 96.0133 58.1321 94.52C 63.6575 92.8773 69.5561 92.056 75.8281 92.056C 84.6388 92.056 92.8521 93.4747 100.468 96.312C 108.084 99.1493 114.505 102.883 119.732 107.512L 110.772 119.384C 105.844 115.053 100.319 111.843 94.1961 109.752C 88.0735 107.512 81.8015 106.392 75.3801 106.392C 68.2121 106.392 62.0895 107.96 57.0121 111.096C 52.0841 114.083 49.6201 118.936 49.6201 125.656C 49.6201 128.344 50.0681 130.584 50.9641 132.376C 52.0095 134.168 53.6521 135.736 55.8921 137.08C 58.1321 138.424 60.9695 139.619 64.4041 140.664C 67.9881 141.709 72.2441 142.829 77.1721 144.024C 84.9375 145.816 91.6575 147.683 97.3321 149.624C 103.156 151.416 107.935 153.581 111.668 156.12C 115.551 158.659 118.388 161.645 120.18 165.08C 122.121 168.515 123.092 172.696 123.092 177.624C 123.092 188.525 118.911 197.187 110.548 203.608C 102.185 210.029 90.9108 213.24 76.7241 213.24ZM 146.868 47.48L 166.58 47.48L 166.58 180.76C 166.58 185.091 167.7 188.525 169.94 191.064C 172.329 193.453 175.614 194.648 179.796 194.648C 181.438 194.648 183.38 194.424 185.62 193.976C 187.86 193.379 189.95 192.707 191.892 191.96L 195.028 207.864C 191.742 209.208 187.86 210.328 183.38 211.224C 178.9 212.12 174.942 212.568 171.508 212.568C 163.892 212.568 157.844 210.403 153.364 206.072C 149.033 201.741 146.868 195.693 146.868 187.928L 146.868 47.48ZM 210.513 211L 210.513 94.072L 230.225 94.072L 230.225 211L 210.513 211ZM 210.513 72.12L 210.513 47.48L 230.225 47.48L 230.225 72.12L 210.513 72.12ZM 363.61 211L 343.898 211L 343.898 145.592C 343.898 133.048 341.957 123.939 338.074 118.264C 334.341 112.589 328.592 109.752 320.826 109.752C 316.794 109.752 312.762 110.573 308.73 112.216C 304.698 113.709 300.89 115.8 297.306 118.488C 293.722 121.176 290.586 124.387 287.898 128.12C 285.21 131.853 283.194 135.96 281.85 140.44L 281.85 211L 262.138 211L 262.138 94.072L 280.058 94.072L 280.058 119.16C 284.688 110.947 291.333 104.376 299.994 99.448C 308.805 94.52 318.362 92.056 328.666 92.056C 335.386 92.056 340.986 93.3253 345.466 95.864C 349.946 98.2533 353.53 101.688 356.218 106.168C 358.906 110.499 360.773 115.651 361.818 121.624C 363.013 127.597 363.61 134.093 363.61 141.112L 363.61 211ZM 476.695 211L 436.375 153.88L 413.975 174.936L 413.975 211L 394.263 211L 394.263 47.48L 413.975 47.48L 413.975 155L 474.007 94.296L 495.735 94.296L 449.143 142.68L 497.975 211L 476.695 211ZM 520.389 242.808C 522.331 243.107 524.272 243.331 526.213 243.48C 528.155 243.629 529.648 243.704 530.693 243.704C 532.485 243.704 534.053 243.256 535.397 242.36C 536.891 241.613 538.309 240.045 539.653 237.656C 541.147 235.267 542.789 231.907 544.581 227.576C 546.373 223.395 548.613 217.869 551.301 211L 501.797 94.072L 522.181 94.072L 562.053 193.304L 598.341 94.072L 617.157 94.072L 560.261 241.688C 558.171 246.915 554.661 251.469 549.733 255.352C 544.955 259.384 538.309 261.4 529.797 261.4C 528.453 261.4 527.035 261.325 525.541 261.176C 524.197 261.027 522.48 260.728 520.389 260.28L 520.389 242.808Z"/>
<path id="path1_fill" d="M 456.959 310.988C 447.612 310.988 343.735 310.988 337.782 310.988C 331.922 310.988 326.399 308.761 326.399 301.787C 326.399 300.956 326.482 300.217 326.632 299.571C 326.482 298.914 326.399 298.181 326.399 297.344C 326.399 296.524 326.482 295.791 326.622 295.145C 326.482 294.5 326.399 293.767 326.399 292.935C 326.399 292.109 326.482 291.376 326.622 290.731C 326.482 290.085 326.399 289.358 326.399 288.532C 326.399 287.695 326.482 286.968 326.622 286.322C 326.482 285.677 326.399 284.95 326.399 284.118C 326.399 283.286 326.482 282.559 326.622 281.914C 326.482 281.268 326.399 280.541 326.399 279.709C 326.399 278.883 326.482 278.15 326.622 277.517C 326.482 276.871 326.399 276.144 326.399 275.324C 326.399 274.492 326.482 273.765 326.622 273.12C 326.482 272.48 326.399 271.747 326.399 270.927C 326.399 270.095 326.482 269.374 326.622 268.728C 326.482 268.089 326.399 267.362 326.399 266.542C 326.399 265.721 326.482 264.994 326.622 264.36C 326.482 263.721 326.399 262.988 326.399 262.179C 326.399 259.521 327.197 257.852 328.513 256.794C 327.026 255.572 326.27 253.897 326.114 251.536C 325.72 245.824 329.28 243.475 338.419 240.921C 329.031 241.637 324.995 240.666 323.809 235.076C 322.622 229.539 325.772 226.591 334.321 222.502C 325.265 224.828 321.187 224.537 319.244 219.274C 317.281 213.964 320.032 210.486 328.067 204.85C 319.291 208.84 315.167 209.328 312.483 204.425C 309.774 199.476 312.095 195.532 319.41 188.413C 311.126 194.049 307.069 195.311 303.712 190.897C 300.324 186.43 302.121 182.097 308.499 173.64C 300.971 180.794 297.101 182.83 293.127 179.015C 289.205 175.257 290.314 170.715 295.293 161.479C 288.988 169.627 285.475 172.221 281.087 169.18C 276.73 166.178 277.139 161.56 280.677 151.766C 275.683 160.723 272.6 163.811 267.87 161.607C 263.176 159.42 262.917 154.82 264.995 144.63C 261.352 154.255 258.752 157.797 253.778 156.477C 248.794 155.134 247.923 150.58 248.587 139.959C 246.307 150.295 244.229 154.296 239.1 153.889C 233.805 153.424 232.391 148.782 231.588 137.307C 230.785 148.782 229.376 153.424 224.076 153.889C 219.097 154.325 216.879 150.306 214.589 139.948C 215.252 150.591 214.382 155.145 209.393 156.483C 204.455 157.792 201.839 154.284 198.212 144.723C 200.274 154.854 200.005 159.426 195.327 161.607C 190.586 163.823 187.503 160.717 182.499 151.749C 186.037 161.572 186.457 166.184 182.1 169.185C 177.68 172.227 174.178 169.616 167.837 161.403C 172.852 170.709 173.976 175.263 170.033 179.032C 166.091 182.836 162.236 180.841 154.76 173.739C 161.081 182.132 162.852 186.459 159.475 190.885C 156.107 195.306 152.045 194.038 143.74 188.396C 151.081 195.521 153.402 199.47 150.698 204.431C 148.014 209.322 143.901 208.857 135.14 204.867C 143.155 210.497 145.906 213.97 143.942 219.274C 142.004 224.52 137.948 224.828 128.943 222.531C 137.43 226.602 140.554 229.545 139.372 235.065C 138.176 240.689 134.088 241.643 124.529 240.892C 133.844 243.469 137.466 245.813 137.067 251.582C 136.901 253.944 136.15 255.619 134.658 256.829C 135.974 257.899 136.777 259.568 136.777 262.232C 136.777 263.069 136.699 263.802 136.554 264.448C 136.699 265.093 136.777 265.826 136.777 266.664C 136.777 267.501 136.704 268.228 136.554 268.874C 136.704 269.519 136.777 270.246 136.777 271.078C 136.777 271.898 136.704 272.637 136.559 273.282C 136.704 273.922 136.777 274.655 136.777 275.487C 136.777 276.313 136.704 277.045 136.554 277.691C 136.704 278.337 136.777 279.064 136.777 279.895C 136.777 280.727 136.704 281.454 136.559 282.1C 136.704 282.745 136.777 283.472 136.777 284.304C 136.777 285.124 136.704 285.857 136.559 286.497C 136.704 287.142 136.777 287.869 136.777 288.689C 136.777 289.521 136.704 290.248 136.559 290.894C 136.704 291.539 136.777 292.266 136.777 293.098C 136.777 293.918 136.704 294.645 136.559 295.279C 136.704 295.925 136.777 296.652 136.777 297.478C 136.777 298.298 136.704 299.019 136.559 299.659C 136.704 300.298 136.777 301.02 136.777 301.84C 136.777 308.819 131.254 311 125.394 311C 121.187 311 10.0562 311 6.21713 311C 2.78735 311 9.88186e-07 307.871 9.88186e-07 304.021C 9.88186e-07 303.201 0.0777141 302.479 0.217599 301.84C 0.0777141 301.188 9.88186e-07 300.467 9.88186e-07 299.647C 9.88186e-07 298.827 0.0777137 298.106 0.22278 297.466C 0.0777137 296.82 9.88186e-07 296.099 9.88186e-07 295.279C 9.88186e-07 294.447 0.0777137 293.72 0.22278 293.075C 0.0777137 292.441 9.88186e-07 291.708 9.88186e-07 290.882C 9.88186e-07 290.05 0.0777137 289.323 0.22278 288.689C 0.0777137 288.044 9.88186e-07 287.311 9.88186e-07 286.491C 9.88186e-07 285.665 0.0777137 284.938 0.22278 284.292C 0.0777137 283.647 9.88186e-07 282.914 9.88186e-07 282.094C 9.88186e-07 281.262 0.0777137 280.535 0.22278 279.89C 0.0777137 279.238 9.88186e-07 278.511 9.88186e-07 277.685C 9.88186e-07 276.859 0.0777137 276.126 0.22278 275.481C 0.0777137 274.835 9.88186e-07 274.108 9.88186e-07 273.277C 9.88186e-07 272.451 0.0777137 271.718 0.22278 271.072C 0.0777137 270.427 9.88186e-07 269.7 9.88186e-07 268.874C 9.88186e-07 268.036 0.0777134 267.303 0.227961 266.658C 0.0777134 266.012 9.88186e-07 265.279 9.88186e-07 264.442C 9.88186e-07 263.604 0.0777134 262.872 0.227961 262.22C 0.0777134 261.575 9.88186e-07 260.836 9.88186e-07 260.01C 9.88186e-07 251.769 7.47092 251.321 25.5161 250.251C 37.3546 249.547 53.317 249.006 68.7562 248.488C 76.165 248.238 84.4493 247.965 92.4383 247.639C 84.356 245.883 75.9422 244.115 68.4298 242.533C 53.3999 239.374 37.8571 236.106 26.4124 233.378C 8.92158 229.237 1.6838 227.515 2.81325 219.419C 3.95306 211.282 11.3877 212.137 29.3293 214.237C 41.0952 215.604 56.9126 217.872 72.2119 220.053C 79.6569 221.112 87.9827 222.304 96.0132 223.403C 88.2677 220.239 80.1802 217 72.9735 214.109C 58.5498 208.328 43.6287 202.349 32.6762 197.644C 15.9469 190.455 9.03038 187.471 11.2893 179.66C 13.5585 171.82 20.76 174.001 38.1576 179.23C 49.566 182.661 64.8394 187.686 79.6207 192.537C 86.8636 194.916 94.9718 197.58 102.785 200.098C 95.5935 195.614 88.0863 191.002 81.3822 186.878C 67.9325 178.607 54.032 170.052 43.8618 163.462C 28.3346 153.389 21.9154 149.219 25.2415 141.896C 28.5832 134.574 35.3806 137.976 51.8146 146.212C 62.5857 151.609 76.9629 159.257 90.8685 166.661C 97.6711 170.279 105.287 174.333 112.639 178.189C 106.199 172.53 99.474 166.69 93.4693 161.479C 81.3356 150.934 68.7821 140.035 59.6533 131.718C 45.7218 119.033 39.945 113.787 44.2504 107.133C 48.5713 100.485 54.8091 105.033 69.8701 116.032C 79.7502 123.244 92.8683 133.311 105.562 143.042C 111.794 147.817 118.773 153.168 125.508 158.274C 119.965 151.597 114.162 144.682 108.981 138.517C 98.4482 125.96 87.5475 112.984 79.6725 103.155C 67.6475 88.1609 62.6738 81.9551 67.8599 76.1331C 73.0409 70.3286 78.5638 75.9063 91.9099 89.3997C 100.655 98.2402 112.214 110.466 123.384 122.29C 128.881 128.106 135.036 134.62 140.989 140.849C 136.44 133.294 131.674 125.471 127.425 118.486C 118.757 104.242 109.789 89.516 103.365 78.4305C 93.5626 61.5172 89.5111 54.5204 95.4329 49.6756C 101.355 44.8424 106.038 51.3215 117.343 66.9727C 124.757 77.2265 134.466 91.319 143.864 104.946C 148.506 111.687 153.713 119.236 158.754 126.46C 155.309 118.201 151.698 109.634 148.47 101.986C 141.885 86.3811 135.072 70.2414 130.259 58.1497C 122.923 39.7009 119.892 32.0585 126.425 28.3245C 132.953 24.579 136.663 31.8084 145.631 49.2335C 151.506 60.6506 159.127 76.2611 166.489 91.3597C 170.163 98.8742 174.271 107.308 178.261 115.375C 176.017 106.604 173.644 97.4957 171.525 89.3648C 167.204 72.7772 162.728 55.6254 159.671 42.8241C 155.009 23.2994 153.081 15.2092 160.06 12.6675C 167.013 10.1201 169.671 17.902 176.074 36.6765C 180.266 48.966 185.586 65.7164 190.736 81.9027C 193.311 89.9988 196.197 99.0661 199.01 107.761C 198.031 98.752 196.974 89.3997 196.021 81.0478C 194.073 63.8785 192.063 46.1277 190.84 32.9193C 188.97 12.778 188.192 4.44352 195.446 3.16397C 202.684 1.84952 204.191 10.0212 207.89 29.6506C 210.305 42.5043 213.216 59.9526 216.04 76.831C 217.449 85.2586 219.029 94.7098 220.594 103.777C 220.869 94.8087 221.122 85.5029 221.345 77.18C 221.812 59.8538 222.283 41.9343 222.915 28.6444C 223.868 8.38685 224.262 2.83991e-06 231.604 2.83991e-06C 238.945 2.83991e-06 239.344 8.38685 240.302 28.6444C 240.924 41.9343 241.406 59.8596 241.867 77.18C 242.085 85.5029 242.338 94.8087 242.623 103.777C 244.183 94.704 245.758 85.2586 247.167 76.831C 249.991 59.9526 252.902 42.5043 255.322 29.6506C 259.016 10.0212 260.492 1.84952 267.766 3.16397C 275.015 4.44352 274.243 12.7838 272.378 32.9251C 271.15 46.1335 269.134 63.8902 267.186 81.0594C 266.238 89.4172 265.176 98.7637 264.197 107.779C 267.02 99.0777 269.906 90.0046 272.476 81.9143C 277.631 65.7222 282.957 48.9776 287.148 36.6881C 293.552 17.9137 296.194 10.1433 303.178 12.6733C 310.152 15.2208 308.219 23.311 303.556 42.8474C 300.494 55.6603 296.023 72.8179 291.692 89.4172C 289.578 97.5248 287.211 106.592 284.983 115.34C 288.972 107.273 293.07 98.8567 296.733 91.3481C 304.1 76.2495 311.722 60.639 317.586 49.2219C 326.56 31.7851 330.295 24.5848 336.792 28.3071C 343.325 32.0527 340.289 39.6834 332.958 58.1322C 328.15 70.2297 321.343 86.3637 314.752 101.974C 311.525 109.628 307.903 118.195 304.463 126.46C 309.509 119.225 314.716 111.675 319.358 104.935C 328.751 91.3016 338.466 77.2149 345.874 66.9553C 357.184 51.3041 361.857 44.8365 367.784 49.6639C 373.711 54.5088 369.644 61.5114 359.853 78.4247C 353.418 89.5102 344.45 104.237 335.782 118.486C 331.533 125.465 326.767 133.277 322.229 140.826C 328.176 134.597 334.336 128.089 339.828 122.272C 351.003 110.448 362.567 98.2228 371.313 89.3881C 384.654 75.9005 390.182 70.3054 395.363 76.1331C 400.549 81.9434 395.57 88.1492 383.555 103.143C 375.675 112.967 364.785 125.942 354.252 138.499C 349.066 144.67 343.263 151.586 337.714 158.274C 344.45 153.168 351.413 147.823 357.635 143.048C 370.333 133.311 383.457 123.244 393.347 116.026C 408.413 105.028 414.656 100.468 418.967 107.121C 423.278 113.775 417.511 119.021 403.574 131.706C 394.435 140.023 381.887 150.923 369.758 161.462C 363.749 166.673 357.029 172.512 350.589 178.165C 357.936 174.315 365.551 170.267 372.349 166.65C 386.255 159.246 400.632 151.603 411.408 146.2C 427.847 137.964 434.644 134.568 437.981 141.884C 441.312 149.201 434.883 153.377 419.361 163.445C 409.201 170.04 395.295 178.59 381.851 186.861C 375.147 190.984 367.634 195.602 360.438 200.086C 368.24 197.574 376.343 194.904 383.581 192.531C 398.368 187.675 413.646 182.655 425.055 179.218C 442.463 173.978 449.659 171.82 451.928 179.643C 454.187 187.465 447.265 190.432 430.536 197.632C 419.594 202.337 404.673 208.322 390.254 214.103C 383.037 217 374.955 220.239 367.204 223.397C 375.24 222.304 383.576 221.106 391.026 220.047C 406.315 217.855 422.133 215.592 433.893 214.22C 451.835 212.12 459.259 211.242 460.399 219.39C 461.544 227.504 454.296 229.219 436.8 233.361C 425.345 236.077 409.802 239.345 394.777 242.503C 387.265 244.08 378.851 245.854 370.774 247.604C 378.727 247.953 387.016 248.227 394.425 248.477C 409.859 249 425.832 249.535 437.67 250.251C 455.71 251.321 463.181 251.769 463.181 260.01C 463.181 260.818 463.109 261.545 462.958 262.179C 463.109 262.825 463.181 263.552 463.181 264.36C 463.181 265.181 463.109 265.913 462.958 266.553C 463.109 267.187 463.181 267.92 463.181 268.74C 463.181 269.566 463.109 270.293 462.958 270.939C 463.109 271.584 463.181 272.311 463.181 273.137C 463.181 273.957 463.109 274.69 462.958 275.335C 463.109 275.969 463.181 276.696 463.181 277.528C 463.181 278.354 463.109 279.087 462.958 279.732C 463.109 280.378 463.181 281.105 463.181 281.931C 463.181 282.757 463.109 283.484 462.958 284.129C 463.109 284.775 463.181 285.502 463.181 286.328C 463.181 287.165 463.098 287.893 462.958 288.538C 463.098 289.184 463.181 289.911 463.181 290.742C 463.181 291.574 463.109 292.301 462.958 292.947C 463.109 293.592 463.181 294.319 463.181 295.151C 463.181 295.983 463.098 296.71 462.958 297.367C 463.098 298.013 463.181 298.74 463.181 299.571C 463.181 300.409 463.098 301.147 462.958 301.799C 463.098 302.45 463.181 303.183 463.181 304.021C 463.176 307.859 460.394 310.988 456.959 310.988Z"/>
<path id="path2_fill" d="M 12.3359 25.1584C 19.1488 25.1584 24.6718 19.5265 24.6718 12.5792C 24.6718 5.6319 19.1488 0 12.3359 0C 5.52296 0 0 5.6319 0 12.5792C 0 19.5265 5.52296 25.1584 12.3359 25.1584Z"/>
<path id="path3_stroke" d="M 109.672 6.49609L 108.016 11.2138L 108.016 11.2138L 109.672 6.49609ZM 108.125 45.5677L 109.726 50.3046L 109.726 50.3046L 108.125 45.5677ZM 23.2645 45.5253L 24.9102 40.8039L 24.9101 40.8039L 23.2645 45.5253ZM 21.9868 6.61569L 20.312 1.90454L 20.3119 1.90458L 21.9868 6.61569ZM 66.1217 5C 82.2942 4.98476 96.8485 7.27182 108.016 11.2138L 111.328 1.77835C 99.2926 -2.42488 83.0745 -4.98475 66.1217 -5L 66.1217 5ZM 108.016 11.2138C 114.626 13.5169 119.469 16.1547 122.959 19.1586C 126.383 22.0722 127.243 24.3503 127.243 25.5761L 137.243 25.5761C 137.243 20.067 133.807 15.2584 129.439 11.5425C 125.138 7.91684 118.695 4.38213 111.328 1.77834L 108.016 11.2138ZM 127.243 25.5761C 127.243 26.9187 126.283 29.3792 122.598 32.4726C 118.853 35.6506 113.639 38.4457 106.525 40.8307L 109.726 50.3046C 117.622 47.6183 124.466 43.9269 129.028 40.1316C 133.65 36.2518 137.243 31.2522 137.243 25.5761L 127.243 25.5761ZM 106.525 40.8307C 95.6393 44.533 81.5113 46.4141 66.1217 46.403L 66.1217 56.403C 82.1769 56.3919 97.9144 54.2707 109.726 50.3046L 106.525 40.8307ZM 66.1217 46.403C 50.3082 46.4124 35.8726 44.6549 24.9102 40.8039L 21.6188 50.2467C 33.6034 54.394 49.6963 56.3937 66.1217 56.403L 66.1217 46.403ZM 24.9101 40.8039C 18.0598 38.4368 13.0726 35.6443 9.47638 32.4686C 5.94561 29.3853 5 26.9196 5 25.5761L -5 25.5761C -5 31.1171 -1.57296 36.0958 2.89871 40.0008C 7.30493 43.8134 13.95 47.5532 21.6189 50.2467L 24.9101 40.8039ZM 5 25.5761C 5 24.3095 5.84031 22.0506 9.11248 19.1958C 12.4776 16.2241 17.16 13.6197 23.6617 11.3268L 20.3119 1.90458C 13.0324 4.51127 6.72136 8.04694 2.53839 11.6605C -1.73753 15.3909 -5 20.1624 -5 25.5761L 5 25.5761ZM 23.6616 11.3269C 34.8618 7.32232 49.7864 4.98484 66.1217 5L 66.1217 -5C 49.0083 -4.98484 32.4006 -2.37008 20.312 1.90454L 23.6616 11.3269Z"/>
<path id="path4_stroke" d="M 17.5963 46.8205L 13.2441 44.3591L 13.2441 44.3591L 17.5963 46.8205ZM 44.8711 11.5956L 41.5524 7.85583L 41.5523 7.85586L 44.8711 11.5956ZM 72.3562 1.18837L 69.8217 5.4984L 69.8217 5.49841L 72.3562 1.18837ZM 77.2906 32.4805L 82.1915 33.4707L 82.1915 33.4707L 77.2906 32.4805ZM 61.264 72.4999L 65.6162 74.9613L 65.6162 74.9613L 61.264 72.4999ZM 34.8604 107.422L 31.5335 103.689L 31.5334 103.689L 34.8604 107.422ZM 6.29097 118.007L 3.75633 122.317L 3.75649 122.317L 6.29097 118.007ZM 1.16797 89.1124L 6.08348 90.0277L 6.08348 90.0277L 1.16797 89.1124ZM 21.9485 49.2818C 30.023 34.9749 39.2541 23.2388 48.1899 15.3354L 41.5523 7.85586C 31.9776 16.3793 21.7179 29.4049 13.2441 44.3591L 21.9485 49.2818ZM 48.1899 15.3354C 53.4528 10.6431 58.1139 7.68176 62.4051 6.10109C 66.5943 4.53052 68.8757 4.94214 69.8217 5.4984L 74.8907 -3.12166C 70.1151 -5.92992 64.2297 -5.26266 58.8946 -3.26248C 53.6615 -1.27238 47.4408 2.65213 41.5524 7.85583L 48.1899 15.3354ZM 69.8217 5.49841C 70.8977 6.13118 72.5255 8.18062 73.3216 13.036C 74.1527 17.9514 73.9207 23.9948 72.3896 31.4904L 82.1915 33.4707C 83.8509 25.1737 84.133 17.3242 83.1898 11.4181C 82.2117 5.45213 79.7771 -0.248246 74.8906 -3.12167L 69.8217 5.49841ZM 72.3896 31.4904C 70.0906 42.979 64.6165 56.4359 56.9118 70.0386L 65.6162 74.9613C 73.6204 60.7868 79.666 45.8621 82.1915 33.4707L 72.3896 31.4904ZM 56.9118 70.0386C 49.0132 84.0232 40.2918 95.9192 31.5335 103.689L 38.1874 111.154C 47.6878 102.65 57.4091 89.4555 65.6162 74.9613L 56.9118 70.0386ZM 31.5334 103.689C 26.0962 108.562 21.2322 111.573 16.7426 113.161C 12.3582 114.74 9.87355 114.313 8.82545 113.697L 3.75649 122.317C 8.55704 125.14 14.5809 124.569 20.1309 122.57C 25.5758 120.58 32.0722 116.58 38.1874 111.154L 31.5334 103.689ZM 8.82561 113.697C 7.81298 113.101 6.29853 111.259 5.49859 106.89C 4.65278 102.414 4.78027 96.9365 6.08348 90.0277L -3.74754 88.1971C -5.16689 95.9098 -5.31543 103.211 -4.33785 108.692C -3.31441 114.281 -0.90608 119.575 3.75633 122.317L 8.82561 113.697ZM 6.08348 90.0277C 8.28191 78.1107 13.7666 63.7204 21.9485 49.2818L 13.2441 44.3591C 4.71583 59.468 -1.34526 75.4055 -3.74755 88.1971L 6.08348 90.0277Z"/>
<path id="path5_stroke" d="M 17.5832 72.4004L 13.235 74.8689L 13.2351 74.869L 17.5832 72.4004ZM 1.27732 30.7125L 6.18774 29.7704L 6.18774 29.7703L 1.27732 30.7125ZM 6.1618 1.23328L 8.70355 5.53904L 8.70366 5.53897L 6.1618 1.23328ZM 35.212 12.5018L 31.856 16.2083L 31.8561 16.2083L 35.212 12.5018ZM 61.2089 46.6467L 56.8607 49.1153L 56.8607 49.1153L 61.2089 46.6467ZM 77.6928 87.4136L 72.7844 88.3664L 72.7844 88.3664L 77.6928 87.4136ZM 72.4176 117.939L 69.8758 113.634L 69.8757 113.634L 72.4176 117.939ZM 45.3102 108.035L 48.608 104.277L 48.608 104.277L 45.3102 108.035ZM 21.9313 69.9319C 13.8075 55.6513 8.44229 41.6225 6.18774 29.7704L -3.63311 31.6547C -1.17579 44.3597 4.7628 59.9165 13.235 74.8689L 21.9313 69.9319ZM 6.18774 29.7703C 4.82739 22.7632 4.63862 17.128 5.44167 12.5235C 6.20795 7.98794 7.72701 6.1155 8.70355 5.53904L 3.62005 -3.07247C -1.11952 -0.274637 -3.46201 5.19566 -4.4186 10.8577C -5.33843 16.4509 -5.11138 23.8681 -3.6331 31.6548L 6.18774 29.7703ZM 8.70366 5.53897C 9.74664 4.92324 12.2319 4.50329 16.7079 6.20709C 21.2774 7.91817 26.2636 11.1213 31.856 16.2083L 38.5679 8.7954C 32.3365 3.17648 25.7758 -1.01289 20.2654 -3.13873C 14.6615 -5.27186 8.53355 -5.97315 3.61994 -3.07241L 8.70366 5.53897ZM 31.8561 16.2083C 40.4612 23.9693 49.1525 35.5165 56.8607 49.1153L 65.557 44.1782C 57.5106 30.0263 47.8424 17.2226 38.5678 8.79533L 31.8561 16.2083ZM 56.8607 49.1153C 64.7982 63.0786 70.5538 76.7364 72.7844 88.3664L 82.6012 86.4608C 80.1228 73.8321 73.772 58.6661 65.557 44.1782L 56.8607 49.1153ZM 72.7844 88.3664C 74.2108 95.6188 74.3403 101.46 73.4443 106.244C 72.5871 110.956 70.953 112.998 69.8758 113.634L 74.9593 122.245C 79.7251 119.432 82.2184 113.885 83.2829 108.034C 84.3087 102.254 84.1543 94.5573 82.6011 86.4608L 72.7844 88.3664ZM 69.8757 113.634C 68.893 114.214 66.6366 114.634 62.5748 113.177C 58.3716 111.698 53.8153 108.869 48.608 104.277L 42.0124 111.793C 47.8679 116.909 54.0305 120.706 59.1978 122.589C 64.5067 124.494 70.2725 125.012 74.9594 122.245L 69.8757 113.634ZM 48.608 104.277C 39.5895 96.391 30.1112 84.3689 21.9313 69.9318L 13.2351 74.869C 21.814 89.9508 32.3364 103.275 42.0124 111.793L 48.608 104.277Z"/>
</defs>
</svg>
